# xmcd CD database file
#
# Track frame offsets:
#	150
#	11888
#	31188
#	47090
#	59155
#	71427
#	82826
#	98489
#	113863
#	127098
#
# Disc length: 1884 seconds
#
# Revision: 1
# Processed by: cddbd v1.5.2PL0 Copyright (c) Steve Scherf et al.
# Submitted via: CDex 1.70beta2
#
DISCID=81075a0a
DTITLE=Moore , Jackie - Sweet Charlie Babe (1973)  - Sweet Charlie Babe
DYEAR=1973
DGENRE=Soul
TTITLE0=Sweet Charlie Babe (Hurtt-Sigler)
TTITLE1=Clean Up Your Own Yard (Hurtt-Bell)
TTITLE2=If (Hurtt-Sigler)
TTITLE3=Darling Baby (Holland-Dozier-Holland)
TTITLE4=Cover Me (Greene-Hilton)
TTITLE5=Both Ends Against The Middle (Hurtt-Bell)
TTITLE6=Time (Crawford)
TTITLE7=Precious, Precious (Crawford-Moore)
TTITLE8=Willpower (Crawford)
TTITLE9=Something In A Look
EXTD=Originall released in 1973 as SD 7285 Atlantic Recording\r\nwww.oldies.com YEAR: 1973
EXTT0=
EXTT1=
EXTT2=
EXTT3=
EXTT4=
EXTT5=
EXTT6=
EXTT7=
EXTT8=
EXTT9=
PLAYORDER=
